<?xml version="1.0" standalone="no"?>
<!DOCTYPE svg PUBLIC "-//W3C//DTD SVG 20010904//EN"
 "http://www.w3.org/TR/2001/REC-SVG-20010904/DTD/svg10.dtd">
<svg version="1.0" xmlns="http://www.w3.org/2000/svg"
 width="1200.000000pt" height="1308.000000pt" viewBox="0 0 1200.000000 1308.000000"
 preserveAspectRatio="xMidYMid meet">

<g transform="translate(0.000000,1308.000000) scale(0.100000,-0.100000)"
fill="#000000" stroke="none">
<path d="M5715 13073 c-124 -7 -355 -34 -500 -58 -1330 -226 -2490 -1041
-3174 -2232 -132 -229 -282 -573 -370 -845 -82 -255 -152 -580 -188 -878 -26
-210 -25 -814 0 -1020 116 -917 448 -1693 1025 -2390 111 -133 416 -442 547
-551 699 -586 1485 -928 2405 -1045 197 -24 712 -30 930 -10 659 62 1274 254
1835 574 472 269 929 658 1281 1092 405 499 710 1110 864 1730 235 942 170
1900 -191 2815 -64 163 -246 520 -348 683 -521 831 -1285 1470 -2183 1826
-601 238 -1271 345 -1933 309z m785 -147 c789 -99 1500 -385 2135 -861 224
-168 497 -426 687 -648 576 -672 923 -1465 1034 -2362 21 -176 30 -641 15
-831 -16 -197 -45 -407 -82 -578 -366 -1732 -1731 -3076 -3469 -3415 -292 -57
-496 -75 -840 -75 -317 0 -473 13 -748 60 -1098 186 -2096 799 -2772 1699
-999 1330 -1159 3116 -414 4605 537 1072 1480 1875 2626 2236 247 77 592 148
843 173 61 6 126 13 145 15 19 2 186 3 370 1 239 -2 374 -8 470 -19z"/>
<path d="M5645 12749 c-729 -63 -1395 -294 -1995 -694 -792 -528 -1381 -1307
-1675 -2215 -294 -912 -261 -1938 92 -2830 216 -546 521 -1008 943 -1430 755
-756 1712 -1179 2780 -1229 789 -38 1583 151 2265 537 144 81 417 268 550 375
1217 980 1786 2492 1519 4032 -300 1728 -1692 3112 -3424 3404 -96 16 -222 35
-280 41 -140 15 -637 21 -775 9z m37 -1599 c-91 -64 -239 -205 -303 -289 -73
-96 -145 -249 -165 -351 -43 -217 18 -475 126 -532 46 -24 123 -23 179 2 24
11 45 20 47 20 2 0 4 -609 4 -1353 l0 -1353 29 -46 c97 -153 245 -214 424
-174 127 28 315 129 469 252 l68 55 -3 1132 c-3 1270 3 1168 -78 1332 -49 97
-121 190 -192 246 l-52 42 120 -6 c152 -7 261 -29 349 -72 l70 -33 60 62 c338
340 791 610 1281 765 130 41 335 93 335 84 0 -2 -51 -66 -113 -141 -262 -320
-498 -637 -607 -818 l-51 -83 -11 -178 c-11 -186 -4 -1801 10 -2181 l7 -194
37 -33 c51 -47 132 -69 223 -62 209 18 444 159 768 461 l138 128 -52 -103
c-109 -218 -300 -513 -478 -738 -291 -367 -638 -684 -972 -886 l-58 -36 -296
252 -297 251 -23 -23 c-12 -13 -140 -150 -285 -304 -144 -154 -277 -295 -295
-313 l-31 -33 -140 21 c-399 59 -783 175 -1109 335 -254 124 -445 256 -606
417 -64 64 -179 199 -179 211 0 3 24 -1 53 -9 28 -8 88 -15 132 -15 126 -2
197 38 232 130 17 43 18 117 18 1126 l0 1080 -22 41 c-81 151 -259 164 -479
33 -330 -198 -844 -809 -1110 -1322 l-71 -138 -6 38 c-4 21 -7 83 -7 138 0
443 202 974 543 1428 269 357 736 830 1097 1112 385 299 774 505 1211 639 63
19 118 35 123 36 5 0 -23 -22 -62 -50z"/>
<path d="M4458 2813 c-17 -4 -18 -48 -18 -734 l0 -729 210 0 210 0 0 202 0
201 338 -6 c452 -8 506 -18 543 -102 16 -35 38 -201 39 -292 0 -10 49 -13 211
-13 l211 0 -4 193 c-5 195 -12 235 -50 290 -23 32 -78 62 -130 72 -21 4 -45
13 -54 20 -15 11 -12 14 33 29 100 33 170 120 192 241 14 73 14 207 1 300 -33
229 -119 294 -434 324 -106 11 -1261 14 -1298 4z m1230 -346 c57 -31 72 -68
72 -182 0 -111 -14 -153 -62 -189 -27 -19 -43 -20 -430 -20 l-403 -1 -3 208
-2 208 397 -3 c361 -3 401 -5 431 -21z"/>
<path d="M3 2248 c5 -596 7 -622 55 -714 24 -47 75 -95 130 -123 135 -69 578
-113 915 -92 391 25 559 66 634 156 38 44 70 121 83 195 13 74 27 1046 16
1103 l-7 37 -214 0 -214 0 -3 -492 -3 -493 -25 -50 c-31 -62 -74 -92 -148
-101 -31 -4 -176 -7 -322 -8 -300 -1 -350 6 -404 58 -46 43 -56 88 -56 252 0
77 -3 297 -7 487 l-6 347 -215 0 -214 0 5 -562z"/>
<path d="M2160 2075 l0 -735 208 2 207 3 3 548 c1 301 6 547 10 547 5 0 199
-245 433 -544 l424 -545 333 0 332 -1 -2 728 -3 727 -210 0 -210 0 -5 -552 -5
-552 -428 554 -428 555 -330 0 -329 0 0 -735z"/>
<path d="M6502 2078 l3 -733 803 -3 802 -2 0 165 0 165 -590 0 -591 0 3 133 3
132 548 3 547 2 0 145 0 145 -550 0 -550 0 0 135 0 135 585 0 586 0 -3 153 -3
152 -798 3 -797 2 2 -732z"/>
<path d="M8639 2084 c-217 -400 -395 -730 -397 -735 -2 -5 99 -9 226 -9 l230
0 67 130 67 130 473 0 473 0 69 -130 68 -130 227 0 c133 0 228 4 228 9 0 5
-178 336 -396 735 l-396 726 -272 0 -273 0 -394 -726z m820 138 c83 -160 151
-297 151 -302 0 -6 -109 -10 -305 -10 -199 0 -305 4 -305 10 0 22 298 605 305
598 2 -2 71 -135 154 -296z"/>
<path d="M10560 2075 l0 -735 720 0 720 0 0 165 0 165 -502 2 -503 3 -3 568
-2 567 -215 0 -215 0 0 -735z"/>
<path d="M2852 438 l3 -413 458 -3 457 -2 0 90 0 90 -340 0 -340 0 0 75 0 75
315 0 315 0 0 85 0 85 -312 2 -313 3 -3 78 -3 77 331 0 330 0 0 85 0 85 -450
0 -450 0 2 -412z"/>
<path d="M3930 435 l0 -415 115 0 115 0 0 306 c0 282 1 305 17 302 9 -2 123
-138 253 -303 l237 -300 186 -3 187 -2 0 415 0 415 -115 0 -115 0 -2 -307 c-2
-193 -7 -307 -13 -309 -5 -2 -118 136 -249 306 l-239 310 -189 0 -188 0 0
-415z"/>
<path d="M5555 840 c-155 -7 -199 -21 -248 -79 -47 -56 -52 -89 -52 -336 0
-222 1 -232 24 -279 31 -64 88 -99 201 -125 75 -18 120 -21 316 -21 194 0 241
3 307 20 42 11 87 25 100 31 40 21 77 63 87 99 7 27 29 264 30 323 0 4 -126 7
-280 7 l-280 0 0 -75 0 -75 161 0 162 0 -6 -42 c-12 -87 -71 -103 -343 -96
-227 6 -249 27 -249 233 0 109 4 136 20 170 34 68 60 75 283 75 220 0 249 -7
277 -66 l16 -34 103 0 104 0 6 35 c17 87 -19 173 -87 208 -62 32 -316 43 -652
27z"/>
<path d="M6507 833 c-4 -3 -7 -188 -7 -410 l0 -403 115 0 115 0 0 410 0 410
-108 0 c-60 0 -112 -3 -115 -7z"/>
<path d="M6950 430 l0 -410 115 0 115 0 2 312 3 312 244 -312 245 -312 183 0
183 0 0 410 0 410 -115 0 -115 0 -2 -302 c-2 -194 -7 -303 -13 -303 -5 1 -115
137 -244 303 l-234 302 -183 0 -184 0 0 -410z"/>
<path d="M8260 430 l0 -410 455 0 455 0 0 90 0 90 -335 0 -335 0 0 75 0 75
310 0 310 0 0 85 0 85 -305 0 -305 0 0 75 0 75 320 0 320 0 0 85 0 85 -445 0
-445 0 0 -410z"/>
</g>
</svg>
